<svg xmlns="http://www.w3.org/2000/svg" xmlns:xlink="http://www.w3.org/1999/xlink" width="900" zoomAndPan="magnify" viewBox="0 0 675 149.999998" height="200" preserveAspectRatio="xMidYMid meet" version="1.0"><defs><g/><clipPath id="id1"><path d="M 118 10.378906 L 161 10.378906 L 161 47 L 118 47 Z M 118 10.378906 " clip-rule="nonzero"/></clipPath><clipPath id="id2"><path d="M 85 42 L 195 42 L 195 139.378906 L 85 139.378906 Z M 85 42 " clip-rule="nonzero"/></clipPath><clipPath id="id3"><path d="M 545 46 L 579 46 L 579 80 L 545 80 Z M 545 46 " clip-rule="nonzero"/></clipPath><clipPath id="id4"><path d="M 560.09375 27.835938 L 597.601562 68.742188 L 565.539062 98.140625 L 528.03125 57.234375 Z M 560.09375 27.835938 " clip-rule="nonzero"/></clipPath><clipPath id="id5"><path d="M 560.09375 27.835938 L 597.601562 68.742188 L 565.539062 98.140625 L 528.03125 57.234375 Z M 560.09375 27.835938 " clip-rule="nonzero"/></clipPath><clipPath id="id6"><path d="M 551 35 L 590 35 L 590 77 L 551 77 Z M 551 35 " clip-rule="nonzero"/></clipPath><clipPath id="id7"><path d="M 560.09375 27.835938 L 597.601562 68.742188 L 565.539062 98.140625 L 528.03125 57.234375 Z M 560.09375 27.835938 " clip-rule="nonzero"/></clipPath><clipPath id="id8"><path d="M 560.09375 27.835938 L 597.601562 68.742188 L 565.539062 98.140625 L 528.03125 57.234375 Z M 560.09375 27.835938 " clip-rule="nonzero"/></clipPath><clipPath id="id9"><path d="M 551 46 L 579 46 L 579 76 L 551 76 Z M 551 46 " clip-rule="nonzero"/></clipPath><clipPath id="id10"><path d="M 560.09375 27.835938 L 597.601562 68.742188 L 565.539062 98.140625 L 528.03125 57.234375 Z M 560.09375 27.835938 " clip-rule="nonzero"/></clipPath><clipPath id="id11"><path d="M 560.09375 27.835938 L 597.601562 68.742188 L 565.539062 98.140625 L 528.03125 57.234375 Z M 560.09375 27.835938 " clip-rule="nonzero"/></clipPath><clipPath id="id12"><path d="M 550 57 L 568 57 L 568 76 L 550 76 Z M 550 57 " clip-rule="nonzero"/></clipPath><clipPath id="id13"><path d="M 560.09375 27.835938 L 597.601562 68.742188 L 565.539062 98.140625 L 528.03125 57.234375 Z M 560.09375 27.835938 " clip-rule="nonzero"/></clipPath><clipPath id="id14"><path d="M 560.09375 27.835938 L 597.601562 68.742188 L 565.539062 98.140625 L 528.03125 57.234375 Z M 560.09375 27.835938 " clip-rule="nonzero"/></clipPath><clipPath id="id15"><path d="M 545 70 L 555 70 L 555 80 L 545 80 Z M 545 70 " clip-rule="nonzero"/></clipPath><clipPath id="id16"><path d="M 560.09375 27.835938 L 597.601562 68.742188 L 565.539062 98.140625 L 528.03125 57.234375 Z M 560.09375 27.835938 " clip-rule="nonzero"/></clipPath><clipPath id="id17"><path d="M 560.09375 27.835938 L 597.601562 68.742188 L 565.539062 98.140625 L 528.03125 57.234375 Z M 560.09375 27.835938 " clip-rule="nonzero"/></clipPath></defs><path fill="#e92026" d="M 79.800781 133.34375 C 79.902344 133.34375 80.003906 133.34375 80.203125 133.34375 C 81.113281 133.34375 82.023438 132.636719 82.226562 131.734375 L 86.265625 110.402344 L 98.1875 105.46875 C 97.582031 104.261719 97.078125 103.054688 96.570312 101.746094 L 83.640625 107.078125 C 83.035156 107.382812 82.527344 107.886719 82.425781 108.589844 L 78.183594 130.929688 C 77.980469 132.035156 78.691406 133.140625 79.800781 133.34375 Z M 79.800781 133.34375 " fill-opacity="1" fill-rule="nonzero"/><path fill="#e92026" d="M 85.558594 65.722656 C 85.761719 66.429688 86.265625 66.929688 86.972656 67.132812 L 96.066406 69.75 C 96.46875 68.441406 97.078125 67.234375 97.582031 66.027344 L 89.195312 63.609375 L 84.144531 46.304688 C 83.84375 45.195312 82.730469 44.59375 81.621094 44.894531 C 80.507812 45.195312 79.902344 46.304688 80.203125 47.410156 Z M 85.558594 65.722656 " fill-opacity="1" fill-rule="nonzero"/><g clip-path="url(#id1)"><path fill="#e92026" d="M 120.210938 14.605469 C 120.3125 14.605469 132.839844 17.523438 136.273438 27.082031 C 127.890625 28.695312 121.625 36.039062 121.625 44.792969 C 121.625 45.5 121.929688 46.101562 122.535156 46.503906 C 122.835938 46.707031 123.242188 46.804688 123.644531 46.804688 L 155.972656 46.804688 C 156.378906 46.804688 156.78125 46.707031 157.085938 46.503906 C 157.589844 46.101562 157.996094 45.5 157.996094 44.792969 C 157.996094 36.039062 151.730469 28.695312 143.347656 27.082031 C 146.78125 17.523438 159.207031 14.605469 159.410156 14.605469 C 160.519531 14.40625 161.226562 13.296875 160.925781 12.191406 C 160.722656 11.085938 159.609375 10.378906 158.5 10.683594 C 157.996094 10.78125 144.152344 13.902344 139.808594 25.070312 C 135.464844 13.902344 121.726562 10.78125 121.019531 10.582031 C 119.90625 10.378906 118.898438 10.984375 118.59375 12.089844 C 118.394531 13.199219 119.101562 14.304688 120.210938 14.605469 Z M 147.285156 32.820312 C 146.476562 33.121094 145.871094 33.824219 145.871094 34.730469 C 145.871094 35.839844 146.78125 36.742188 147.890625 36.742188 C 148.296875 36.742188 148.597656 36.644531 148.902344 36.441406 C 149.40625 36.140625 149.8125 35.535156 149.914062 34.933594 C 151.933594 37.046875 153.347656 39.761719 153.851562 42.78125 L 125.765625 42.78125 C 126.171875 39.761719 127.585938 37.046875 129.707031 34.933594 C 129.808594 35.535156 130.113281 36.140625 130.71875 36.441406 C 131.019531 36.644531 131.324219 36.742188 131.726562 36.742188 C 132.839844 36.742188 133.75 35.839844 133.75 34.730469 C 133.75 33.824219 133.140625 33.121094 132.335938 32.820312 C 134.457031 31.511719 137.082031 30.707031 139.808594 30.707031 C 142.539062 30.707031 145.0625 31.511719 147.285156 32.820312 Z M 147.285156 32.820312 " fill-opacity="1" fill-rule="nonzero"/></g><path fill="#e92026" d="M 183.855469 70.25 L 194.769531 67.132812 C 195.476562 66.929688 195.980469 66.429688 196.183594 65.722656 L 201.4375 47.308594 C 201.738281 46.203125 201.132812 45.09375 200.019531 44.792969 C 198.910156 44.492188 197.796875 45.09375 197.496094 46.203125 L 192.546875 63.511719 L 182.339844 66.429688 C 182.949219 67.734375 183.453125 69.042969 183.855469 70.25 Z M 183.855469 70.25 " fill-opacity="1" fill-rule="nonzero"/><path fill="#e92026" d="M 197.191406 107.582031 C 197.089844 106.878906 196.585938 106.375 195.980469 106.074219 L 183.453125 100.839844 C 182.949219 102.148438 182.441406 103.355469 181.9375 104.5625 L 193.453125 109.292969 L 197.496094 130.625 C 197.699219 131.632812 198.507812 132.234375 199.515625 132.234375 C 199.617188 132.234375 199.71875 132.234375 199.921875 132.234375 C 201.03125 132.035156 201.738281 130.929688 201.535156 129.921875 Z M 197.191406 107.582031 " fill-opacity="1" fill-rule="nonzero"/><g clip-path="url(#id2)"><path fill="#e92026" d="M 104.046875 62.300781 C 101.421875 66.429688 99.398438 71.058594 98.390625 75.988281 L 90.710938 75.988281 C 87.679688 75.988281 85.355469 78.703125 85.355469 82.023438 L 85.355469 88.0625 C 85.355469 91.382812 87.78125 94.097656 90.710938 94.097656 L 98.390625 94.097656 C 99.5 99.03125 101.421875 103.660156 104.148438 107.785156 L 98.691406 113.21875 C 96.570312 115.332031 96.773438 118.953125 99.199219 121.269531 L 103.441406 125.496094 C 104.753906 126.800781 106.371094 127.40625 107.988281 127.40625 C 109.300781 127.40625 110.613281 126.902344 111.625 125.996094 L 117.078125 120.5625 C 121.222656 123.179688 125.867188 125.191406 130.820312 126.300781 L 130.820312 134.046875 C 130.820312 136.964844 133.546875 139.378906 136.878906 139.378906 L 142.941406 139.378906 C 146.277344 139.378906 149.003906 136.964844 149.003906 134.046875 L 149.003906 126.300781 C 153.953125 125.191406 158.601562 123.28125 162.742188 120.5625 L 168.199219 125.996094 C 169.207031 127.003906 170.421875 127.40625 171.835938 127.40625 C 173.351562 127.40625 175.066406 126.800781 176.28125 125.496094 L 180.523438 121.269531 C 182.847656 118.851562 183.050781 115.332031 181.027344 113.21875 L 175.574219 107.785156 C 178.199219 103.660156 180.21875 99.03125 181.332031 94.097656 L 189.007812 94.097656 C 191.9375 94.097656 194.363281 91.382812 194.363281 88.0625 L 194.363281 82.023438 C 194.363281 78.703125 191.9375 75.988281 189.007812 75.988281 L 181.230469 75.988281 C 180.121094 71.058594 178.199219 66.429688 175.472656 62.300781 L 180.925781 56.867188 C 183.050781 54.753906 182.847656 51.132812 180.421875 48.820312 L 176.179688 44.59375 C 174.867188 43.285156 173.25 42.679688 171.632812 42.679688 C 170.320312 42.679688 169.007812 43.183594 167.996094 44.089844 L 162.539062 49.523438 C 160.621094 51.335938 158.601562 52.945312 155.875 52.945312 L 123.542969 52.945312 C 120.613281 52.945312 118.898438 51.535156 116.878906 49.523438 L 111.523438 43.988281 C 110.511719 42.984375 109.300781 42.578125 107.886719 42.578125 C 106.371094 42.578125 104.652344 43.183594 103.339844 44.492188 L 99.097656 48.71875 C 96.671875 51.03125 96.46875 54.65625 98.589844 56.769531 Z M 139.808594 64.917969 C 147.890625 64.917969 154.457031 71.257812 154.457031 79.007812 C 154.457031 80.113281 153.550781 81.019531 152.4375 81.019531 C 151.328125 81.019531 150.417969 80.113281 150.417969 79.007812 C 150.417969 73.472656 145.667969 68.945312 139.808594 68.945312 C 133.949219 68.945312 129.203125 73.472656 129.203125 79.007812 C 129.203125 80.113281 128.292969 81.019531 127.183594 81.019531 C 126.070312 81.019531 125.160156 80.113281 125.160156 79.007812 C 125.160156 71.257812 131.726562 64.917969 139.808594 64.917969 Z M 141.832031 85.042969 C 141.832031 86.148438 140.921875 87.054688 139.808594 87.054688 C 138.699219 87.054688 137.789062 86.148438 137.789062 85.042969 C 137.789062 83.9375 138.699219 83.03125 139.808594 83.03125 C 140.921875 83.03125 141.832031 83.9375 141.832031 85.042969 Z M 119.605469 83.03125 C 120.714844 83.03125 121.625 83.9375 121.625 85.042969 C 121.625 95.003906 129.808594 103.15625 139.808594 103.15625 C 149.8125 103.15625 157.996094 95.003906 157.996094 85.042969 C 157.996094 83.9375 158.902344 83.03125 160.015625 83.03125 C 161.125 83.03125 162.035156 83.9375 162.035156 85.042969 C 162.035156 97.21875 152.035156 107.179688 139.808594 107.179688 C 127.585938 107.179688 117.585938 97.21875 117.585938 85.042969 C 117.585938 83.9375 118.492188 83.03125 119.605469 83.03125 Z M 119.605469 83.03125 " fill-opacity="1" fill-rule="nonzero"/></g><g clip-path="url(#id3)"><g clip-path="url(#id4)"><g clip-path="url(#id5)"><path fill="#e92026" d="M 551.027344 52.074219 C 557.1875 52.453125 562.484375 54.835938 566.703125 59.4375 C 570.917969 64.039062 572.828125 69.523438 572.671875 75.65625 C 574.507812 75.746094 576.328125 75.835938 578.144531 75.925781 C 578.871094 60.152344 566.234375 47.101562 551.230469 46.605469 C 551.164062 48.417969 551.09375 50.230469 551.027344 52.074219 Z M 550.539062 63.070312 C 553.730469 63.269531 556.460938 64.472656 558.625 66.835938 C 560.792969 69.199219 561.757812 72.03125 561.679688 75.136719 C 563.535156 75.226562 565.351562 75.3125 567.167969 75.402344 C 567.574219 65.472656 559.585938 57.824219 550.761719 57.59375 C 550.757812 57.628906 550.746094 57.664062 550.746094 57.699219 C 550.675781 59.476562 550.609375 61.253906 550.539062 63.070312 Z M 553.078125 77.984375 C 554.878906 76.335938 554.992188 73.539062 553.332031 71.726562 C 551.679688 69.929688 548.882812 69.792969 547.09375 71.421875 C 545.292969 73.0625 545.171875 75.871094 546.828125 77.679688 C 548.488281 79.5 551.28125 79.632812 553.078125 77.984375 Z M 553.078125 77.984375 " fill-opacity="1" fill-rule="nonzero"/></g></g></g><g clip-path="url(#id6)"><g clip-path="url(#id7)"><g clip-path="url(#id8)"><path fill="#e92026" d="M 589.09375 76.546875 C 588.996094 76.53125 588.902344 76.503906 588.804688 76.496094 C 587.191406 76.421875 585.582031 76.34375 583.96875 76.273438 C 583.867188 76.269531 583.765625 76.292969 583.660156 76.304688 C 583.878906 67.023438 581.042969 58.875 574.769531 52.03125 C 568.5 45.195312 560.636719 41.667969 551.410156 41.078125 C 551.414062 40.992188 551.414062 40.894531 551.417969 40.796875 C 551.480469 39.175781 551.546875 37.554688 551.609375 35.933594 C 551.613281 35.835938 551.589844 35.738281 551.582031 35.640625 C 551.609375 35.617188 551.636719 35.589844 551.664062 35.566406 C 551.753906 35.582031 551.839844 35.605469 551.929688 35.609375 C 553.867188 35.726562 555.785156 35.957031 557.6875 36.347656 C 562.714844 37.375 567.375 39.304688 571.652344 42.15625 C 573.523438 43.402344 575.28125 44.792969 576.898438 46.359375 C 577.21875 46.667969 577.546875 46.960938 577.871094 47.265625 C 578.507812 47.960938 579.148438 48.65625 579.785156 49.351562 C 579.820312 49.40625 579.847656 49.464844 579.886719 49.515625 C 580.585938 50.425781 581.304688 51.316406 581.980469 52.242188 C 583.363281 54.132812 584.519531 56.160156 585.5 58.285156 C 588.070312 63.835938 589.285156 69.664062 589.15625 75.761719 C 589.152344 76 589.167969 76.238281 589.171875 76.472656 C 589.144531 76.5 589.117188 76.523438 589.09375 76.546875 Z M 589.09375 76.546875 " fill-opacity="1" fill-rule="nonzero"/></g></g></g><g clip-path="url(#id9)"><g clip-path="url(#id10)"><g clip-path="url(#id11)"><path fill="#e92026" d="M 551.027344 52.074219 C 551.09375 50.230469 551.164062 48.417969 551.230469 46.605469 C 566.234375 47.101562 578.871094 60.152344 578.144531 75.925781 C 576.328125 75.835938 574.507812 75.746094 572.671875 75.65625 C 572.828125 69.523438 570.917969 64.039062 566.703125 59.4375 C 562.484375 54.835938 557.1875 52.453125 551.027344 52.074219 Z M 551.027344 52.074219 " fill-opacity="1" fill-rule="nonzero"/></g></g></g><g clip-path="url(#id12)"><g clip-path="url(#id13)"><g clip-path="url(#id14)"><path fill="#e92026" d="M 550.539062 63.070312 C 550.609375 61.253906 550.675781 59.476562 550.746094 57.699219 C 550.746094 57.664062 550.757812 57.628906 550.761719 57.59375 C 559.585938 57.824219 567.574219 65.472656 567.167969 75.402344 C 565.351562 75.3125 563.535156 75.226562 561.679688 75.136719 C 561.757812 72.03125 560.792969 69.199219 558.625 66.835938 C 556.460938 64.472656 553.730469 63.269531 550.539062 63.070312 Z M 550.539062 63.070312 " fill-opacity="1" fill-rule="nonzero"/></g></g></g><g clip-path="url(#id15)"><g clip-path="url(#id16)"><g clip-path="url(#id17)"><path fill="#e92026" d="M 553.078125 77.984375 C 551.28125 79.632812 548.488281 79.5 546.828125 77.679688 C 545.171875 75.871094 545.292969 73.0625 547.09375 71.421875 C 548.882812 69.792969 551.679688 69.929688 553.332031 71.726562 C 554.992188 73.539062 554.878906 76.335938 553.078125 77.984375 Z M 553.078125 77.984375 " fill-opacity="1" fill-rule="nonzero"/></g></g></g><g fill="#010203" fill-opacity="1"><g transform="translate(218.10702, 101.846087)"><g><path d="M 3.15625 -31.515625 L 16.875 -31.515625 C 20.894531 -31.515625 24.015625 -30.5625 26.234375 -28.65625 C 28.460938 -26.75 29.578125 -24.039062 29.578125 -20.53125 C 29.578125 -16.832031 28.460938 -13.960938 26.234375 -11.921875 C 24.015625 -9.890625 20.894531 -8.875 16.875 -8.875 L 11.15625 -8.875 L 11.15625 0 L 3.15625 0 Z M 11.15625 -25.203125 L 11.15625 -15.171875 L 16.46875 -15.171875 C 18.238281 -15.171875 19.601562 -15.601562 20.5625 -16.46875 C 21.53125 -17.34375 22.015625 -18.601562 22.015625 -20.25 C 22.015625 -21.875 21.53125 -23.101562 20.5625 -23.9375 C 19.601562 -24.78125 18.238281 -25.203125 16.46875 -25.203125 Z M 11.15625 -25.203125 "/></g></g></g><g fill="#010203" fill-opacity="1"><g transform="translate(248.48794, 101.846087)"><g><path d="M 27.8125 -25.203125 L 11.15625 -25.203125 L 11.15625 -18.953125 L 26.203125 -18.953125 L 26.203125 -12.65625 L 11.15625 -12.65625 L 11.15625 -6.296875 L 28.3125 -6.296875 L 28.3125 0 L 3.15625 0 L 3.15625 -31.515625 L 27.8125 -31.515625 Z M 27.8125 -25.203125 "/></g></g></g><g fill="#010203" fill-opacity="1"><g transform="translate(278.5988, 101.846087)"><g><path d="M 15.265625 -31.875 C 19.972656 -31.875 24.113281 -30.703125 27.6875 -28.359375 L 24.671875 -22.109375 C 23.015625 -23.066406 21.238281 -23.851562 19.34375 -24.46875 C 17.457031 -25.082031 15.867188 -25.390625 14.578125 -25.390625 C 12.273438 -25.390625 11.125 -24.625 11.125 -23.09375 C 11.125 -22.101562 11.691406 -21.304688 12.828125 -20.703125 C 13.972656 -20.109375 15.363281 -19.59375 17 -19.15625 C 18.632812 -18.71875 20.269531 -18.191406 21.90625 -17.578125 C 23.539062 -16.960938 24.925781 -15.960938 26.0625 -14.578125 C 27.207031 -13.203125 27.78125 -11.460938 27.78125 -9.359375 C 27.78125 -6.328125 26.59375 -3.960938 24.21875 -2.265625 C 21.84375 -0.578125 18.828125 0.265625 15.171875 0.265625 C 12.554688 0.265625 9.972656 -0.179688 7.421875 -1.078125 C 4.867188 -1.984375 2.648438 -3.210938 0.765625 -4.765625 L 3.875 -10.9375 C 5.457031 -9.5625 7.328125 -8.429688 9.484375 -7.546875 C 11.648438 -6.660156 13.578125 -6.21875 15.265625 -6.21875 C 16.554688 -6.21875 17.5625 -6.445312 18.28125 -6.90625 C 19 -7.375 19.359375 -8.054688 19.359375 -8.953125 C 19.359375 -9.828125 18.941406 -10.554688 18.109375 -11.140625 C 17.285156 -11.722656 16.257812 -12.15625 15.03125 -12.4375 C 13.800781 -12.726562 12.46875 -13.113281 11.03125 -13.59375 C 9.59375 -14.070312 8.253906 -14.597656 7.015625 -15.171875 C 5.785156 -15.742188 4.757812 -16.648438 3.9375 -17.890625 C 3.113281 -19.140625 2.703125 -20.632812 2.703125 -22.375 C 2.703125 -25.25 3.847656 -27.550781 6.140625 -29.28125 C 8.441406 -31.007812 11.484375 -31.875 15.265625 -31.875 Z M 15.265625 -31.875 "/></g></g></g><g fill="#010203" fill-opacity="1"><g transform="translate(307.359395, 101.846087)"><g><path d="M 27.234375 -25.078125 L 17.734375 -25.078125 L 17.734375 0 L 9.71875 0 L 9.71875 -25.078125 L 0.3125 -25.078125 L 0.3125 -31.5625 L 27.234375 -31.5625 Z M 27.234375 -25.078125 "/></g></g></g><g fill="#010203" fill-opacity="1"><g transform="translate(334.634698, 101.846087)"><g/></g></g><g fill="#010203" fill-opacity="1"><g transform="translate(344.851636, 101.846087)"><g><path d="M 17.921875 -31.78125 C 20.253906 -31.78125 22.550781 -31.300781 24.8125 -30.34375 C 27.082031 -29.382812 29.015625 -28.09375 30.609375 -26.46875 L 25.96875 -20.984375 C 24.945312 -22.242188 23.722656 -23.238281 22.296875 -23.96875 C 20.878906 -24.707031 19.460938 -25.078125 18.046875 -25.078125 C 15.554688 -25.078125 13.46875 -24.195312 11.78125 -22.4375 C 10.101562 -20.6875 9.265625 -18.519531 9.265625 -15.9375 C 9.265625 -13.289062 10.101562 -11.082031 11.78125 -9.3125 C 13.46875 -7.539062 15.554688 -6.65625 18.046875 -6.65625 C 19.367188 -6.65625 20.742188 -6.984375 22.171875 -7.640625 C 23.597656 -8.304688 24.863281 -9.210938 25.96875 -10.359375 L 30.65625 -5.40625 C 28.945312 -3.664062 26.925781 -2.269531 24.59375 -1.21875 C 22.269531 -0.164062 19.953125 0.359375 17.640625 0.359375 C 12.898438 0.359375 8.953125 -1.179688 5.796875 -4.265625 C 2.648438 -7.359375 1.078125 -11.21875 1.078125 -15.84375 C 1.078125 -20.375 2.679688 -24.160156 5.890625 -27.203125 C 9.109375 -30.253906 13.117188 -31.78125 17.921875 -31.78125 Z M 17.921875 -31.78125 "/></g></g></g><g fill="#010203" fill-opacity="1"><g transform="translate(375.772665, 101.846087)"><g><path d="M 18.09375 -31.78125 C 22.988281 -31.78125 27.054688 -30.253906 30.296875 -27.203125 C 33.535156 -24.160156 35.15625 -20.359375 35.15625 -15.796875 C 35.15625 -11.203125 33.523438 -7.359375 30.265625 -4.265625 C 27.015625 -1.179688 22.957031 0.359375 18.09375 0.359375 C 13.226562 0.359375 9.175781 -1.175781 5.9375 -4.25 C 2.695312 -7.332031 1.078125 -11.179688 1.078125 -15.796875 C 1.078125 -20.390625 2.695312 -24.203125 5.9375 -27.234375 C 9.175781 -30.265625 13.226562 -31.78125 18.09375 -31.78125 Z M 18.1875 -25.078125 C 15.726562 -25.078125 13.625 -24.179688 11.875 -22.390625 C 10.132812 -20.609375 9.265625 -18.394531 9.265625 -15.75 C 9.265625 -13.113281 10.144531 -10.882812 11.90625 -9.0625 C 13.664062 -7.25 15.757812 -6.34375 18.1875 -6.34375 C 20.613281 -6.34375 22.675781 -7.25 24.375 -9.0625 C 26.070312 -10.882812 26.921875 -13.113281 26.921875 -15.75 C 26.921875 -18.394531 26.070312 -20.609375 24.375 -22.390625 C 22.675781 -24.179688 20.613281 -25.078125 18.1875 -25.078125 Z M 18.1875 -25.078125 "/></g></g></g><g fill="#010203" fill-opacity="1"><g transform="translate(411.779691, 101.846087)"><g><path d="M 32.234375 0 L 25.15625 0 L 10.671875 -19.40625 L 10.671875 0 L 3.15625 0 L 3.15625 -31.515625 L 10.21875 -31.515625 L 24.765625 -12.0625 L 24.765625 -31.515625 L 32.234375 -31.515625 Z M 32.234375 0 "/></g></g></g><g fill="#010203" fill-opacity="1"><g transform="translate(446.931555, 101.846087)"><g><path d="M 27.234375 -25.078125 L 17.734375 -25.078125 L 17.734375 0 L 9.71875 0 L 9.71875 -25.078125 L 0.3125 -25.078125 L 0.3125 -31.5625 L 27.234375 -31.5625 Z M 27.234375 -25.078125 "/></g></g></g><g fill="#010203" fill-opacity="1"><g transform="translate(474.20685, 101.846087)"><g><path d="M 22.140625 0 L 17.46875 -8.875 L 11.15625 -8.875 L 11.15625 0 L 3.15625 0 L 3.15625 -31.515625 L 17.234375 -31.515625 C 21.410156 -31.515625 24.640625 -30.5625 26.921875 -28.65625 C 29.203125 -26.75 30.34375 -24.039062 30.34375 -20.53125 C 30.34375 -15.664062 28.4375 -12.289062 24.625 -10.40625 L 31.234375 0 Z M 11.15625 -15.171875 L 17.234375 -15.171875 C 18.984375 -15.171875 20.335938 -15.601562 21.296875 -16.46875 C 22.253906 -17.34375 22.734375 -18.601562 22.734375 -20.25 C 22.734375 -21.875 22.253906 -23.101562 21.296875 -23.9375 C 20.335938 -24.78125 18.984375 -25.203125 17.234375 -25.203125 L 11.15625 -25.203125 Z M 11.15625 -15.171875 "/></g></g></g><g fill="#010203" fill-opacity="1"><g transform="translate(506.568156, 101.846087)"><g><path d="M 18.09375 -31.78125 C 22.988281 -31.78125 27.054688 -30.253906 30.296875 -27.203125 C 33.535156 -24.160156 35.15625 -20.359375 35.15625 -15.796875 C 35.15625 -11.203125 33.523438 -7.359375 30.265625 -4.265625 C 27.015625 -1.179688 22.957031 0.359375 18.09375 0.359375 C 13.226562 0.359375 9.175781 -1.175781 5.9375 -4.25 C 2.695312 -7.332031 1.078125 -11.179688 1.078125 -15.796875 C 1.078125 -20.390625 2.695312 -24.203125 5.9375 -27.234375 C 9.175781 -30.265625 13.226562 -31.78125 18.09375 -31.78125 Z M 18.1875 -25.078125 C 15.726562 -25.078125 13.625 -24.179688 11.875 -22.390625 C 10.132812 -20.609375 9.265625 -18.394531 9.265625 -15.75 C 9.265625 -13.113281 10.144531 -10.882812 11.90625 -9.0625 C 13.664062 -7.25 15.757812 -6.34375 18.1875 -6.34375 C 20.613281 -6.34375 22.675781 -7.25 24.375 -9.0625 C 26.070312 -10.882812 26.921875 -13.113281 26.921875 -15.75 C 26.921875 -18.394531 26.070312 -20.609375 24.375 -22.390625 C 22.675781 -24.179688 20.613281 -25.078125 18.1875 -25.078125 Z M 18.1875 -25.078125 "/></g></g></g><g fill="#010203" fill-opacity="1"><g transform="translate(542.575166, 101.846087)"><g><path d="M 11.15625 -6.703125 L 24.53125 -6.703125 L 24.53125 0 L 3.15625 0 L 3.15625 -31.515625 L 11.15625 -31.515625 Z M 11.15625 -6.703125 "/></g></g></g></svg>